<svg width="35" height="39" viewBox="0 0 35 39" fill="none" xmlns="http://www.w3.org/2000/svg">
<g clip-path="url(#clip0_0_20)">
<path d="M12.8741 8.01025C12.7045 9.83588 19.5247 10.4482 22.598 10.7247C25.6713 11.0012 32.3521 11.6021 32.5217 9.77647C32.6912 7.95085 29.8387 4.37271 25.0836 2.49224C14.5304 -1.68225 5.91683 2.84412 3.93535 3.5273C3.15948 3.79692 12.9322 7.40019 12.8741 8.01025Z" fill="#CD3C32"/>
<path d="M0.0114908 2.99967C-0.127887 4.50998 1.00339 5.84893 2.54119 5.98602C4.07899 6.12311 5.43792 5.01037 5.5773 3.50006C5.71667 1.98746 4.58539 0.650801 3.04992 0.511423C1.51212 0.374329 0.153191 1.48707 0.0114908 2.99967Z" fill="white"/>
<path d="M9.87456 18.4705C9.41229 27.7769 15.4102 29.2369 22.2397 29.2369C29.0692 29.2369 34.6048 25.7251 34.6048 18.4705C34.6048 11.216 29.0552 8.34161 22.228 8.34161C15.3962 8.34161 10.3229 9.46121 9.87456 18.4705Z" fill="white"/>
<path d="M11.2991 19.6406C10.8972 28.947 16.096 30.407 22.0102 30.407C27.9268 30.407 32.7214 26.8952 32.7214 19.6406C32.7214 12.3884 27.9268 8.87653 22.0102 8.87653C16.0937 8.87653 11.687 10.6313 11.2991 19.6406Z" fill="#F8C1A5"/>
<path d="M14.1444 21.7152C14.1444 22.4189 15.0945 22.9879 16.2653 22.9879C17.436 22.9879 18.3861 22.4189 18.3861 21.7152C18.3861 21.0114 17.436 20.4425 16.2653 20.4425C15.0945 20.4425 14.1444 21.0114 14.1444 21.7152Z" fill="#FBE1DB"/>
<path d="M25.0057 21.7151C25.0057 22.4189 25.9558 22.9878 27.1266 22.9878C28.2974 22.9878 29.2475 22.4189 29.2475 21.7151C29.2475 21.0114 28.2974 20.4424 27.1266 20.4424C25.9558 20.4424 25.0057 21.0114 25.0057 21.7151Z" fill="#FBE1DB"/>
<path d="M9.02039 20.1752C9.02039 22.1562 10.0402 22.4669 11.2992 22.4669C12.5582 22.4669 13.578 21.7198 13.578 20.1752C13.578 18.6329 12.5582 17.8857 11.2992 17.8857C10.0402 17.8857 9.02039 18.1942 9.02039 20.1752Z" fill="#F8C1A5"/>
<path d="M30.4424 20.1753C30.4424 22.1563 31.4622 22.467 32.7212 22.467C33.9802 22.467 35 21.7198 35 20.1753C35 18.633 33.9802 17.8858 32.7212 17.8858C31.4622 17.8858 30.4424 18.1943 30.4424 20.1753Z" fill="#F8C1A5"/>
<path d="M15.9488 22.2315C17.468 21.8019 19.5354 21.7357 21.6145 21.7174V25.3984C21.1359 25.3367 20.7921 25.2978 20.4065 25.4166C17.6585 26.2666 16.7781 25.3527 15.2867 25.2521C14.5898 25.2042 13.2704 25.4281 13.2704 25.4281C13.2704 25.4281 13.577 22.9033 15.9488 22.2315Z" fill="#F0F8FD"/>
<path d="M28.23 22.2318C26.7108 21.8022 24.6434 21.7359 22.5643 21.7177V25.3986C23.0429 25.3369 23.3867 25.2981 23.7723 25.4169C26.5203 26.2669 27.4007 25.3529 28.8921 25.2524C29.589 25.2044 30.9084 25.4283 30.9084 25.4283C30.9084 25.4283 30.5994 22.9035 28.23 22.2318Z" fill="#F0F8FD"/>
<path d="M22.0099 13.3799C16.6671 13.3799 12.2511 13.9122 12.7343 19.6405H11.2987C11.6866 10.1833 16.0956 8.34167 22.0099 8.34167C27.9264 8.34167 32.721 12.0272 32.721 19.6405H31.4782C31.8453 14.4857 26.3468 13.3799 22.0099 13.3799Z" fill="white"/>
<path d="M32.7205 19.6405C32.4858 23.63 34.5788 26.4678 34.6021 29.7946C34.6323 34.1702 31.7541 38.4977 22.0093 38.4977C11.7325 38.4977 8.81723 33.9828 9.01933 29.2348C9.15406 26.0565 11.2889 23.3741 11.2982 19.6405C11.2982 19.6405 12.6199 17.8081 12.7337 19.6405C12.9916 23.7945 17.3262 21.7152 21.9117 21.7152C26.8318 21.7152 30.818 22.9879 31.4777 19.6405C31.6821 18.6078 32.7205 19.6405 32.7205 19.6405Z" fill="white"/>
<path d="M19.9452 24.6629C19.9452 25.5015 20.8256 26.1801 21.9127 26.1801C22.9999 26.1801 23.8803 25.5015 23.8803 24.6629C23.8803 23.8244 22.9999 23.1458 21.9127 23.1458C20.8256 23.1458 19.9452 23.8266 19.9452 24.6629Z" fill="#CD3C32"/>
<path d="M13.6288 24.8843C13.6288 24.8843 14.6764 24.425 16.112 24.8089C17.3664 25.1425 18.9065 25.8531 20.3026 25.451C22.3979 24.8478 22.0867 22.8622 22.0867 22.8622C22.0867 22.8622 20.7672 21.4044 18.5163 21.4113C14.7461 21.4204 13.6288 24.8843 13.6288 24.8843Z" fill="white"/>
<path d="M30.3882 24.8843C30.3882 24.8843 29.3406 24.425 27.905 24.8089C26.6506 25.1425 25.1105 25.8531 23.7144 25.451C21.6191 24.8478 21.928 22.8622 21.928 22.8622C21.928 22.8622 23.2474 21.4044 25.4984 21.4113C29.2732 21.4204 30.3882 24.8843 30.3882 24.8843Z" fill="white"/>
<path d="M19.2596 21.2947C19.2596 22.2932 20.4467 23.102 21.9125 23.102C23.3782 23.102 24.5653 22.2932 24.5653 21.2947C24.5653 20.2962 23.3782 19.4873 21.9125 19.4873C20.4467 19.4873 19.2596 20.2984 19.2596 21.2947Z" fill="#F2937B"/>
<path d="M10.2331 15.7356C10.535 16.2702 16.5236 14.4263 22.0105 14.3258C27.8318 14.2184 33.6833 16.3182 34.285 15.6373C35.4534 14.3121 33.8924 10.1742 32.7216 9.27848C30.0061 7.19923 14.1449 7.70648 12.2285 8.87863C11.0624 9.58923 9.43629 14.3258 10.2331 15.7356Z" fill="white"/>
<path d="M10.4393 15.3928C11.566 14.9541 12.6531 14.3783 13.8053 14.0059C15.285 13.5261 16.8112 13.3022 18.3629 13.1993C21.6871 12.98 25.067 13.1148 28.3656 13.5763C29.9103 13.7934 31.4319 14.111 32.9674 14.3715C33.5365 14.4675 34.1497 14.4195 34.6956 14.2253C34.6933 14.8056 34.5725 15.3083 34.2822 15.635C33.6805 16.3182 27.829 14.2161 22.0076 14.3235C16.5208 14.4263 10.5322 16.2679 10.2303 15.7333C10.1931 15.6647 10.1606 15.587 10.1327 15.5048C10.2372 15.4705 10.3394 15.434 10.4393 15.3928Z" fill="#F0F8FD"/>
<path opacity="0.3" d="M20.2948 20.3352C20.2948 20.7191 21.0196 21.0276 21.9116 21.0276C22.8036 21.0276 23.5284 20.7168 23.5284 20.3352C23.5284 19.9514 22.8059 19.6406 21.9116 19.6406C21.0196 19.6406 20.2948 19.9514 20.2948 20.3352Z" fill="white"/>
<path d="M16.9257 18.3655C16.9257 18.923 17.3856 19.3777 17.9547 19.3777C18.5215 19.3777 18.9838 18.9253 18.9838 18.3655C18.9838 17.808 18.5239 17.3533 17.9547 17.3533C17.3879 17.3533 16.9257 17.8057 16.9257 18.3655Z" fill="#2F120C"/>
<path d="M25.9033 18.3655C25.9033 18.923 26.3633 19.3777 26.9324 19.3777C27.5015 19.3777 27.9615 18.9253 27.9615 18.3655C27.9615 17.808 27.5015 17.3533 26.9324 17.3533C26.3656 17.3533 25.9033 17.8057 25.9033 18.3655Z" fill="#2F120C"/>
<path d="M14.7244 16.8187C15.268 17.1249 17.0729 16.0167 19.0381 16.2841C19.9859 16.412 19.5887 14.6641 19.0381 14.4904C17.3633 13.9557 15.5792 14.3328 14.7081 15.4524C13.9903 16.3732 14.1808 16.5125 14.7244 16.8187Z" fill="white"/>
<path d="M29.1343 16.5604C28.5907 16.8665 26.7858 15.7584 24.8205 16.0257C23.8728 16.1536 24.2723 14.4057 24.8205 14.2321C26.4954 13.6974 28.2794 14.0744 29.1505 15.194C29.8707 16.1148 29.6778 16.2542 29.1343 16.5604Z" fill="white"/>
</g>
<defs>
<clipPath id="clip0_0_20">
<rect width="35" height="38" fill="white" transform="translate(-0.00012207 0.5)"/>
</clipPath>
</defs>
</svg>
